<svg id="Layer_1" data-name="Layer 1" xmlns="http://www.w3.org/2000/svg" viewBox="0 0 500.57 500.57">
    <defs>
        <style>
            .cls-1,.cls-4,.cls-5,.cls-6{fill:#fff;}.cls-2{fill:#3cb4e5;}.cls-3{fill:#3d4543;}.cls-4,.cls-5,.cls-6{stroke:#fff;}.cls-4{stroke-miterlimit:10;}.cls-5{stroke-width:0.96px;}.cls-7{fill:none;}.cls-8{fill:#003a5d;}
        </style>
    </defs>
    <ellipse class="cls-1" cx="251.25" cy="249.78" rx="199.7" ry="200.48"/>
    <path class="cls-2"
          d="M430.76,249.51c0-99.75-80.87-180.62-180.61-180.62A180.62,180.62,0,0,0,69.53,249.51c0,99.75,80.87,180.61,180.62,180.61A180.61,180.61,0,0,0,430.76,249.51Z"
          transform="translate(0.57 0.13)"/>
    <path class="cls-3"
          d="M392,296.79v33.63H378.49V296.79l-16.26-52.68h-17c11.24,1.62,16.62,11.79,16.62,24.49s-5,21.14-11.75,24.85l14.78,37H350.36L337,295.55h-4.48v34.87H318.66V244.11H298.55a18.89,18.89,0,0,1,13,18.2v49.95c0,8.9-6.27,19.53-20.26,19.53-15.46,0-20.94-10.63-20.94-19.53V262.31c0-7.18,3.57-15.31,13.05-18.2H268.78v11.74H254.34v74.31h-14V255.85H226V244.11H212.12a19.2,19.2,0,0,1,13.22,18.32v6.8H211.22v-6.8c0-2.6-2.35-7.05-6.37-7.05-4.93,0-7.06,4.45-7.06,7.05v49.95c0,2.59,2.13,7.05,7.06,7.05,4,0,6.37-4.46,6.37-7.05v-6.8h14.12v6.8c0,8.78-6.39,19.41-20.49,19.41-15.46,0-21.28-10.63-21.28-19.29V262.43c0-7.09,3.81-15.39,13.42-18.32H166.32l16,86.05h-14L165.55,310H152l-2.69,20.15H136.1l16-86.05h-9.46v12.31H123v21.27h14.11v12.36H123v40.56H109v-86.5H70.35c-.06,1.9-.15,3.8-.15,5.72,0,99.41,80.89,180.3,180.31,180.3s180.3-80.89,180.3-180.3c0-1.92-.09-3.82-.15-5.72H408.31Z"
          transform="translate(0.57 0.13)"/>
    <path class="cls-3"
          d="M291.28,255.13c-4.92,0-6.95,4.7-6.95,7.05V312c0,2.84,2,7.42,6.95,7.42,4,0,6.27-4.83,6.27-7.42V262.43C297.55,259.83,295.31,255.13,291.28,255.13Z"
          transform="translate(0.57 0.13)"/>
    <path class="cls-3" d="M332.55,256.23v26.22H337c9.07,0,11.53-1.24,11.53-13.85,0-6.92-1.46-12.37-6.94-12.37Z"
          transform="translate(0.57 0.13)"/>
    <polygon class="cls-3" points="159.29 266.61 154.93 297.65 163.88 297.65 159.63 266.61 159.29 266.61"/>
    <line class="cls-4" x1="112.55" y1="330.44" x2="112.55" y2="352.25"/>
    <line class="cls-4" x1="176.08" y1="330.44" x2="176.08" y2="394.15"/>
    <line class="cls-4" x1="146.66" y1="330.07" x2="146.66" y2="346"/>
    <path class="cls-4" d="M138.39,364.31a5.55,5.55,0,1,1-5.55-5.54A5.55,5.55,0,0,1,138.39,364.31Z"
          transform="translate(0.57 0.13)"/>
    <line class="cls-4" x1="112.35" y1="351.3" x2="133.8" y2="364.28"/>
    <path class="cls-4" d="M151.45,345.31a5.55,5.55,0,1,1-5.54-5.54A5.54,5.54,0,0,1,151.45,345.31Z"
          transform="translate(0.57 0.13)"/>
    <path class="cls-4" d="M180.86,393.46a5.54,5.54,0,1,1-5.54-5.54A5.54,5.54,0,0,1,180.86,393.46Z"
          transform="translate(0.57 0.13)"/>
    <line class="cls-5" x1="193.38" y1="330.44" x2="193.38" y2="358.65"/>
    <line class="cls-6" x1="193.09" y1="358.04" x2="221.34" y2="373"/>
    <path class="cls-4" d="M224.94,371.82a5.54,5.54,0,1,1-5.54-5.55A5.54,5.54,0,0,1,224.94,371.82Z"
          transform="translate(0.57 0.13)"/>
    <line class="cls-6" x1="400.05" y1="244.13" x2="400.05" y2="203.41"/>
    <line class="cls-6" x1="204.2" y1="165.78" x2="204.2" y2="140.33"/>
    <line class="cls-6" x1="304.23" y1="244.49" x2="304.23" y2="190.44"/>
    <line class="cls-6" x1="329" y1="244.13" x2="329" y2="219.45"/>
    <line class="cls-6" x1="263.01" y1="244.13" x2="263.01" y2="201.64"/>
    <path class="cls-6" d="M287.71,189.85a5.31,5.31,0,1,0-5.31,5.3A5.3,5.3,0,0,0,287.71,189.85Z"
          transform="translate(0.57 0.13)"/>
    <line class="cls-6" x1="262.82" y1="202.55" x2="283.35" y2="190.13"/>
    <path class="cls-6" d="M255.28,118.29a5.3,5.3,0,1,0-5.3,5.3A5.3,5.3,0,0,0,255.28,118.29Z"
          transform="translate(0.57 0.13)"/>
    <line class="cls-6" x1="400.23" y1="204.32" x2="251.61" y2="118.42"/>
    <path class="cls-6" d="M208.75,140.73a5.3,5.3,0,1,0-5.3,5.31A5.31,5.31,0,0,0,208.75,140.73Z"
          transform="translate(0.57 0.13)"/>
    <line class="cls-6" x1="250.02" y1="244.23" x2="250.02" y2="154.36"/>
    <path class="cls-6" d="M255.11,155a5.32,5.32,0,1,0-5.3,4.89A5.1,5.1,0,0,0,255.11,155Z"
          transform="translate(0.57 0.13)"/>
    <path class="cls-6" d="M309.29,190.84a5.3,5.3,0,1,0-5.3,5.31A5.3,5.3,0,0,0,309.29,190.84Z"
          transform="translate(0.57 0.13)"/>
    <line class="cls-6" x1="328.47" y1="220.77" x2="355.5" y2="206.46"/>
    <path class="cls-6" d="M359.17,206.6a5.3,5.3,0,1,0-5.3,5.3A5.3,5.3,0,0,0,359.17,206.6Z"
          transform="translate(0.57 0.13)"/>
    <path class="cls-3"
          d="M125.19,224.33H111.64L109,244.48H95.74l16.12-86.55h14L142,244.48H128ZM123,211.84l-4.26-31h-.33l-4.37,31Z"
          transform="translate(0.57 0.13)"/>
    <path class="cls-3"
          d="M166.69,210c-.9,0-6.61-.12-7.51-.12v34.86H145.3V158.19h21.83c13.33,0,19.71,10.88,19.71,24.73C186.84,200.85,177.21,210,166.69,210ZM162,196.77c9.07,0,11.65-1.24,11.65-13.85,0-6.92-1.46-12.37-7-12.37h-7.4v26.22Z"
          transform="translate(0.57 0.13)"/>
    <path class="cls-3"
          d="M212.07,210c-.9,0-6.61-.12-7.5-.12v34.86h-13.9V158.19h21.84c13.33,0,19.71,10.88,19.71,24.73C232.22,200.85,222.59,210,212.07,210Zm-4.71-13.23c9.07,0,11.65-1.24,11.65-13.85,0-6.92-1.46-12.37-7-12.37h-7.39v26.22Z"
          transform="translate(0.57 0.13)"/>
    <polygon class="cls-3" points="386.12 285.79 395.13 244.24 376.44 244.24 385.89 285.79 386.12 285.79"/>
    <path class="cls-2"
          d="M205.57,347V335.4h4.15v11.4a4.16,4.16,0,0,0,4.52,4.52c3,0,4.49-1.84,4.49-4.52V335.4h4.17v11.52c0,4.78-2.82,8-8.66,8S205.57,351.67,205.57,347Z"
          transform="translate(0.57 0.13)"/>
    <path class="cls-2"
          d="M241.35,354.6,238,341.42l-3.33,13.18H230.3l-5.5-19.2h4.58l3.36,13.88,3.66-13.88h3.2l3.62,13.88,3.34-13.88h4.61l-5.47,19.2Z"
          transform="translate(0.57 0.13)"/>
    <path class="cls-2" d="M251,349.19v-3.11h6.91v3.11Z" transform="translate(0.57 0.13)"/>
    <path class="cls-2"
          d="M260.66,354.6V335.4h9c4.17,0,6.45,2.82,6.45,6.19a6,6,0,0,1-6.45,6.19h-4.89v6.82Zm11.25-13a2.57,2.57,0,0,0-2.82-2.59h-4.34v5.18h4.34A2.59,2.59,0,0,0,271.91,341.59Z"
          transform="translate(0.57 0.13)"/>
    <path class="cls-2"
          d="M289.73,354.6l-1.18-3.25h-8.23l-1.21,3.25h-4.67l7.43-19.2H287l7.39,19.2Zm-5.3-15.11-3,8.26h6Z"
          transform="translate(0.57 0.13)"/>
    <path class="cls-2"
          d="M307,354.6l-3.76-6.82h-3v6.82h-4.09V335.4h9c4,0,6.45,2.62,6.45,6.19a5.51,5.51,0,0,1-4.2,5.7l4.32,7.31Zm.41-13a2.61,2.61,0,0,0-2.88-2.59h-4.29v5.18h4.29A2.61,2.61,0,0,0,307.43,341.59Z"
          transform="translate(0.57 0.13)"/>
    <path class="cls-2" d="M326.08,354.6l-5.82-7.68-1.49,1.78v5.9h-4.09V335.4h4.09V344l6.79-8.58h5l-7.63,9,8.15,10.19Z"
          transform="translate(0.57 0.13)"/>
    <path class="cls-2"
          d="M331.69,351.9l2.22-3.11a8.41,8.41,0,0,0,6.1,2.59c2.24,0,3.34-1,3.34-2.13,0-3.4-11.06-1.07-11.06-8.29,0-3.2,2.76-5.85,7.28-5.85a10.66,10.66,0,0,1,7.49,2.68l-2.27,3a8.27,8.27,0,0,0-5.59-2.11c-1.75,0-2.73.78-2.73,1.93,0,3.05,11,1,11,8.18,0,3.51-2.5,6.16-7.68,6.16A11,11,0,0,1,331.69,351.9Z"
          transform="translate(0.57 0.13)"/>
    <path class="cls-2" d="M350.25,354.6V335.4h4.09v19.2Z" transform="translate(0.57 0.13)"/>
    <path class="cls-2"
          d="M358.14,354.6V335.4h7.57c6,0,10.19,3.83,10.19,9.62s-4.18,9.58-10.19,9.58ZM371.72,345c0-3.4-2.07-6-6-6h-3.49v12h3.49A5.75,5.75,0,0,0,371.72,345Z"
          transform="translate(0.57 0.13)"/>
    <path class="cls-2" d="M378.8,354.6V335.4h13.59V339h-9.5v4.06h9.29v3.6h-9.29V351h9.5v3.59Z"
          transform="translate(0.57 0.13)"/>
    <path class="cls-7"
          d="M109,244.11v86.5h14V290.05h14.11V277.69H123V256.42h19.71V244.11h9.46l-16,86.05h13.21L152,310h13.55l2.8,20.15h14l-16-86.05H197c-9.61,2.93-13.42,11.23-13.42,18.32V312.5c0,8.66,5.82,19.29,21.28,19.29,14.1,0,20.49-10.63,20.49-19.41v-6.8H211.22v6.8c0,2.59-2.35,7.05-6.37,7.05-4.93,0-7.06-4.46-7.06-7.05V262.43c0-2.6,2.13-7.05,7.06-7.05,4,0,6.37,4.45,6.37,7.05v6.8h14.12v-6.8a19.2,19.2,0,0,0-13.22-18.32H226v11.74h14.33v74.31h14V255.85h14.44V244.11h14.61c-9.48,2.89-13.05,11-13.05,18.2v49.95c0,8.9,5.48,19.53,20.94,19.53,14,0,20.26-10.63,20.26-19.53V262.31a18.89,18.89,0,0,0-13-18.2h20.11v86.31h13.89V295.55H337l13.33,34.87h14.55l-14.78-37c6.72-3.71,11.75-12,11.75-24.85s-5.38-22.87-16.62-24.49h17l16.26,52.68v33.63H392V296.79l16.27-52.68h22.35c-3-96.78-82.65-174.59-180.15-174.59S73.38,147.33,70.35,244.11Z"
          transform="translate(0.57 0.13)"/>
    <path class="cls-7"
          d="M250.51,69.52C153,69.52,73.38,147.33,70.35,244.11c-.06,1.9-.15,3.8-.15,5.72,0,99.41,80.89,180.3,180.31,180.3s180.3-80.89,180.3-180.3c0-1.92-.09-3.82-.15-5.72C427.63,147.33,348,69.52,250.51,69.52Z"
          transform="translate(0.57 0.13)"/>
    <path class="cls-8"
          d="M463.39,289.7c.66-2.68,1.45-3.85,4.29-4.32q15.27-2.52,30.51-5.16a250.48,250.48,0,0,0,.18-58.56q-15.28-2.74-30.59-5.4c-2.71-.47-3.47-1.59-4.09-4.12q-4.35-17.65-9.32-35.14c-.64-2.27-.5-3.5,1.39-5,8.13-6.57,16.12-13.32,24.16-20a249.45,249.45,0,0,0-29.08-50.78l-29.35,10.6c-1.6.57-2.88,1.27-4.63-.55Q403.57,97.38,389.79,84c-1.59-1.55-1.37-2.72-.78-4.3q5.49-14.81,11-29.62a244.28,244.28,0,0,0-50.57-29.43q-10,11.87-20,23.73c-1.55,1.85-2.75,2.37-5.3,1.62-11.83-3.46-23.76-6.63-35.71-9.65-2.29-.58-3-1.55-3.31-3.67-1.7-10.34-3.5-20.67-5.28-31a250.43,250.43,0,0,0-58.49-.19q-2.78,15.55-5.53,31.1c-.37,2.13-1.17,3-3.4,3.54-12.1,3-24.15,6.25-36.16,9.59-1.89.53-3,.43-4.18-1.11-3.66-4.6-7.46-9.08-11.23-13.6l-9.25-11.1A249.85,249.85,0,0,0,100.83,49q5.33,14.76,10.66,29.49c.68,1.88.9,3.13-.91,4.85q-13.5,12.9-26.53,26.29c-1.6,1.64-2.75,2-4.8,1.22q-14.77-5.5-29.59-11a245.41,245.41,0,0,0-29.42,50.52q11.93,10,23.84,20.08c1.82,1.53,2.33,2.76,1.57,5.32q-5.15,17.39-9.54,35c-.64,2.58-1.57,3.62-4.19,4.05C21.68,216.5,11.46,218.25,1.24,220a250.23,250.23,0,0,0-.19,58.53q15.26,2.74,30.5,5.41c2.66.46,3.75,1.33,4.42,4.18,2.72,11.57,5.79,23.06,9.05,34.49.74,2.62.69,4-1.58,5.88q-12,9.84-23.95,19.83a250.61,250.61,0,0,0,29,50.73c9.88-3.58,19.75-7.13,29.62-10.72,1.92-.7,3.14-.84,4.84.93Q96,402.89,109.52,416c1.48,1.45,1.68,2.54,1,4.26q-5.58,15-11.1,29.95A244,244,0,0,0,150,479.65q10.09-12,20.17-24c1.41-1.67,2.55-2.27,5-1.54q17.2,5.16,34.65,9.53c3,.73,4.22,1.59,4.73,4.72q2.48,15.14,5.09,30.25a250,250,0,0,0,58.5.17q2.76-15.49,5.47-31c.41-2.38,1.38-3.14,3.68-3.7q17.81-4.42,35.49-9.38c2.24-.63,3.49-.54,5,1.37,6.6,8.15,13.38,16.17,20.11,24.23a250.3,250.3,0,0,0,50.78-29.09q-5.27-14.56-10.61-29.11c-1-2.67-.4-4,1.62-5.88q13.13-12.5,25.72-25.59c1.77-1.84,3.06-1.95,5.13-1.18q14.64,5.43,29.29,10.83a244,244,0,0,0,29.38-50.56c-7.85-6.61-15.67-13.24-23.54-19.82-1.92-1.61-2.58-2.81-1.76-5.56C457.39,312.91,460.5,301.33,463.39,289.7ZM250.51,439.63c-104.83,0-189.8-85-189.8-189.8,0-1.92.08-3.81.14-5.72C63.88,141.94,147.6,60,250.51,60s186.62,81.92,189.65,184.09c.06,1.91.15,3.8.15,5.72C440.31,354.65,355.33,439.63,250.51,439.63Z"
          transform="translate(0.57 0.13)"/>
</svg>